<?xml version="1.0" encoding="UTF-8" standalone="no"?>
<!DOCTYPE svg PUBLIC "-//W3C//DTD SVG 1.1//EN"
 "http://www.w3.org/Graphics/SVG/1.1/DTD/svg11.dtd">
<!-- Generated by graphviz version 2.40.1 (20161225.0304)
 -->
<!-- Title: snakemake_dag Pages: 1 -->
<svg width="647pt" height="260pt"
 viewBox="0.00 0.00 647.00 260.00" xmlns="http://www.w3.org/2000/svg" xmlns:xlink="http://www.w3.org/1999/xlink">
<g id="graph0" class="graph" transform="scale(1 1) rotate(0) translate(4 256)">
<title>snakemake_dag</title>
<polygon fill="#ffffff" stroke="transparent" points="-4,4 -4,-256 643,-256 643,4 -4,4"/>
<!-- 0 -->
<g id="node1" class="node">
<title>0</title>
<path fill="none" stroke="#56c1d8" stroke-width="2" d="M189,-36C189,-36 12,-36 12,-36 6,-36 0,-30 0,-24 0,-24 0,-12 0,-12 0,-6 6,0 12,0 12,0 189,0 189,0 195,0 201,-6 201,-12 201,-12 201,-24 201,-24 201,-30 195,-36 189,-36"/>
<text text-anchor="middle" x="100.5" y="-21" font-family="sans" font-size="10.00" fill="#000000">clc_vector_tile_utm_enriched_subset</text>
<text text-anchor="middle" x="100.5" y="-10" font-family="sans" font-size="10.00" fill="#000000">CLC_MAX_AREA_THRESHOLD: 500000</text>
</g>
<!-- 1 -->
<g id="node2" class="node">
<title>1</title>
<path fill="none" stroke="#56c1d8" stroke-width="2" d="M408,-36C408,-36 231,-36 231,-36 225,-36 219,-30 219,-24 219,-24 219,-12 219,-12 219,-6 225,0 231,0 231,0 408,0 408,0 414,0 420,-6 420,-12 420,-12 420,-24 420,-24 420,-30 414,-36 408,-36"/>
<text text-anchor="middle" x="319.5" y="-21" font-family="sans" font-size="10.00" fill="#000000">clc_vector_tile_utm_enriched_subset</text>
<text text-anchor="middle" x="319.5" y="-10" font-family="sans" font-size="10.00" fill="#000000">CLC_MAX_AREA_THRESHOLD: 500000</text>
</g>
<!-- 2 -->
<g id="node3" class="node">
<title>2</title>
<path fill="none" stroke="#56c1d8" stroke-width="2" d="M627,-36C627,-36 450,-36 450,-36 444,-36 438,-30 438,-24 438,-24 438,-12 438,-12 438,-6 444,0 450,0 450,0 627,0 627,0 633,0 639,-6 639,-12 639,-12 639,-24 639,-24 639,-30 633,-36 627,-36"/>
<text text-anchor="middle" x="538.5" y="-21" font-family="sans" font-size="10.00" fill="#000000">clc_vector_tile_utm_enriched_subset</text>
<text text-anchor="middle" x="538.5" y="-10" font-family="sans" font-size="10.00" fill="#000000">CLC_MAX_AREA_THRESHOLD: 500000</text>
</g>
<!-- 3 -->
<g id="node4" class="node">
<title>3</title>
<path fill="none" stroke="#d85656" stroke-width="2" d="M168,-108C168,-108 33,-108 33,-108 27,-108 21,-102 21,-96 21,-96 21,-84 21,-84 21,-78 27,-72 33,-72 33,-72 168,-72 168,-72 174,-72 180,-78 180,-84 180,-84 180,-96 180,-96 180,-102 174,-108 168,-108"/>
<text text-anchor="middle" x="100.5" y="-87.5" font-family="sans" font-size="10.00" fill="#000000">clc_vector_tile_utm_enriched</text>
</g>
<!-- 3&#45;&gt;0 -->
<g id="edge1" class="edge">
<title>3&#45;&gt;0</title>
<path fill="none" stroke="#c0c0c0" stroke-width="2" d="M100.5,-71.8314C100.5,-64.131 100.5,-54.9743 100.5,-46.4166"/>
<polygon fill="#c0c0c0" stroke="#c0c0c0" stroke-width="2" points="104.0001,-46.4132 100.5,-36.4133 97.0001,-46.4133 104.0001,-46.4132"/>
</g>
<!-- 4 -->
<g id="node5" class="node">
<title>4</title>
<path fill="none" stroke="#d85656" stroke-width="2" d="M387,-108C387,-108 252,-108 252,-108 246,-108 240,-102 240,-96 240,-96 240,-84 240,-84 240,-78 246,-72 252,-72 252,-72 387,-72 387,-72 393,-72 399,-78 399,-84 399,-84 399,-96 399,-96 399,-102 393,-108 387,-108"/>
<text text-anchor="middle" x="319.5" y="-87.5" font-family="sans" font-size="10.00" fill="#000000">clc_vector_tile_utm_enriched</text>
</g>
<!-- 4&#45;&gt;1 -->
<g id="edge2" class="edge">
<title>4&#45;&gt;1</title>
<path fill="none" stroke="#c0c0c0" stroke-width="2" d="M319.5,-71.8314C319.5,-64.131 319.5,-54.9743 319.5,-46.4166"/>
<polygon fill="#c0c0c0" stroke="#c0c0c0" stroke-width="2" points="323.0001,-46.4132 319.5,-36.4133 316.0001,-46.4133 323.0001,-46.4132"/>
</g>
<!-- 5 -->
<g id="node6" class="node">
<title>5</title>
<path fill="none" stroke="#d85656" stroke-width="2" d="M606,-108C606,-108 471,-108 471,-108 465,-108 459,-102 459,-96 459,-96 459,-84 459,-84 459,-78 465,-72 471,-72 471,-72 606,-72 606,-72 612,-72 618,-78 618,-84 618,-84 618,-96 618,-96 618,-102 612,-108 606,-108"/>
<text text-anchor="middle" x="538.5" y="-87.5" font-family="sans" font-size="10.00" fill="#000000">clc_vector_tile_utm_enriched</text>
</g>
<!-- 5&#45;&gt;2 -->
<g id="edge3" class="edge">
<title>5&#45;&gt;2</title>
<path fill="none" stroke="#c0c0c0" stroke-width="2" d="M538.5,-71.8314C538.5,-64.131 538.5,-54.9743 538.5,-46.4166"/>
<polygon fill="#c0c0c0" stroke="#c0c0c0" stroke-width="2" points="542.0001,-46.4132 538.5,-36.4133 535.0001,-46.4133 542.0001,-46.4132"/>
</g>
<!-- 6 -->
<g id="node7" class="node">
<title>6</title>
<path fill="none" stroke="#56d88a" stroke-width="2" d="M132,-180C132,-180 69,-180 69,-180 63,-180 57,-174 57,-168 57,-168 57,-156 57,-156 57,-150 63,-144 69,-144 69,-144 132,-144 132,-144 138,-144 144,-150 144,-156 144,-156 144,-168 144,-168 144,-174 138,-180 132,-180"/>
<text text-anchor="middle" x="100.5" y="-159.5" font-family="sans" font-size="10.00" fill="#000000">clc_vector_tile</text>
</g>
<!-- 6&#45;&gt;3 -->
<g id="edge4" class="edge">
<title>6&#45;&gt;3</title>
<path fill="none" stroke="#c0c0c0" stroke-width="2" d="M100.5,-143.8314C100.5,-136.131 100.5,-126.9743 100.5,-118.4166"/>
<polygon fill="#c0c0c0" stroke="#c0c0c0" stroke-width="2" points="104.0001,-118.4132 100.5,-108.4133 97.0001,-118.4133 104.0001,-118.4132"/>
</g>
<!-- 7 -->
<g id="node8" class="node">
<title>7</title>
<path fill="none" stroke="#56d88a" stroke-width="2" d="M351,-180C351,-180 288,-180 288,-180 282,-180 276,-174 276,-168 276,-168 276,-156 276,-156 276,-150 282,-144 288,-144 288,-144 351,-144 351,-144 357,-144 363,-150 363,-156 363,-156 363,-168 363,-168 363,-174 357,-180 351,-180"/>
<text text-anchor="middle" x="319.5" y="-159.5" font-family="sans" font-size="10.00" fill="#000000">clc_vector_tile</text>
</g>
<!-- 7&#45;&gt;4 -->
<g id="edge5" class="edge">
<title>7&#45;&gt;4</title>
<path fill="none" stroke="#c0c0c0" stroke-width="2" d="M319.5,-143.8314C319.5,-136.131 319.5,-126.9743 319.5,-118.4166"/>
<polygon fill="#c0c0c0" stroke="#c0c0c0" stroke-width="2" points="323.0001,-118.4132 319.5,-108.4133 316.0001,-118.4133 323.0001,-118.4132"/>
</g>
<!-- 8 -->
<g id="node9" class="node">
<title>8</title>
<path fill="none" stroke="#56d88a" stroke-width="2" d="M570,-180C570,-180 507,-180 507,-180 501,-180 495,-174 495,-168 495,-168 495,-156 495,-156 495,-150 501,-144 507,-144 507,-144 570,-144 570,-144 576,-144 582,-150 582,-156 582,-156 582,-168 582,-168 582,-174 576,-180 570,-180"/>
<text text-anchor="middle" x="538.5" y="-159.5" font-family="sans" font-size="10.00" fill="#000000">clc_vector_tile</text>
</g>
<!-- 8&#45;&gt;5 -->
<g id="edge6" class="edge">
<title>8&#45;&gt;5</title>
<path fill="none" stroke="#c0c0c0" stroke-width="2" d="M538.5,-143.8314C538.5,-136.131 538.5,-126.9743 538.5,-118.4166"/>
<polygon fill="#c0c0c0" stroke="#c0c0c0" stroke-width="2" points="542.0001,-118.4132 538.5,-108.4133 535.0001,-118.4133 542.0001,-118.4132"/>
</g>
<!-- 9 -->
<g id="node10" class="node">
<title>9</title>
<path fill="none" stroke="#d8bc56" stroke-width="2" d="M131,-252C131,-252 70,-252 70,-252 64,-252 58,-246 58,-240 58,-240 58,-228 58,-228 58,-222 64,-216 70,-216 70,-216 131,-216 131,-216 137,-216 143,-222 143,-228 143,-228 143,-240 143,-240 143,-246 137,-252 131,-252"/>
<text text-anchor="middle" x="100.5" y="-237" font-family="sans" font-size="10.00" fill="#000000">clc_raster_tile</text>
<text text-anchor="middle" x="100.5" y="-226" font-family="sans" font-size="10.00" fill="#000000">tile: 32UQU</text>
</g>
<!-- 9&#45;&gt;6 -->
<g id="edge7" class="edge">
<title>9&#45;&gt;6</title>
<path fill="none" stroke="#c0c0c0" stroke-width="2" d="M100.5,-215.8314C100.5,-208.131 100.5,-198.9743 100.5,-190.4166"/>
<polygon fill="#c0c0c0" stroke="#c0c0c0" stroke-width="2" points="104.0001,-190.4132 100.5,-180.4133 97.0001,-190.4133 104.0001,-190.4132"/>
</g>
<!-- 10 -->
<g id="node11" class="node">
<title>10</title>
<path fill="none" stroke="#d8bc56" stroke-width="2" d="M350,-252C350,-252 289,-252 289,-252 283,-252 277,-246 277,-240 277,-240 277,-228 277,-228 277,-222 283,-216 289,-216 289,-216 350,-216 350,-216 356,-216 362,-222 362,-228 362,-228 362,-240 362,-240 362,-246 356,-252 350,-252"/>
<text text-anchor="middle" x="319.5" y="-237" font-family="sans" font-size="10.00" fill="#000000">clc_raster_tile</text>
<text text-anchor="middle" x="319.5" y="-226" font-family="sans" font-size="10.00" fill="#000000">tile: 33UUP</text>
</g>
<!-- 10&#45;&gt;7 -->
<g id="edge8" class="edge">
<title>10&#45;&gt;7</title>
<path fill="none" stroke="#c0c0c0" stroke-width="2" d="M319.5,-215.8314C319.5,-208.131 319.5,-198.9743 319.5,-190.4166"/>
<polygon fill="#c0c0c0" stroke="#c0c0c0" stroke-width="2" points="323.0001,-190.4132 319.5,-180.4133 316.0001,-190.4133 323.0001,-190.4132"/>
</g>
<!-- 11 -->
<g id="node12" class="node">
<title>11</title>
<path fill="none" stroke="#d8bc56" stroke-width="2" d="M569,-252C569,-252 508,-252 508,-252 502,-252 496,-246 496,-240 496,-240 496,-228 496,-228 496,-222 502,-216 508,-216 508,-216 569,-216 569,-216 575,-216 581,-222 581,-228 581,-228 581,-240 581,-240 581,-246 575,-252 569,-252"/>
<text text-anchor="middle" x="538.5" y="-237" font-family="sans" font-size="10.00" fill="#000000">clc_raster_tile</text>
<text text-anchor="middle" x="538.5" y="-226" font-family="sans" font-size="10.00" fill="#000000">tile: 32UPU</text>
</g>
<!-- 11&#45;&gt;8 -->
<g id="edge9" class="edge">
<title>11&#45;&gt;8</title>
<path fill="none" stroke="#c0c0c0" stroke-width="2" d="M538.5,-215.8314C538.5,-208.131 538.5,-198.9743 538.5,-190.4166"/>
<polygon fill="#c0c0c0" stroke="#c0c0c0" stroke-width="2" points="542.0001,-190.4132 538.5,-180.4133 535.0001,-190.4133 542.0001,-190.4132"/>
</g>
</g>
</svg>
